<?xml version="1.0" encoding="UTF-8" standalone="no"?>
<svg
   xmlns:dc="http://purl.org/dc/elements/1.1/"
   xmlns:cc="http://creativecommons.org/ns#"
   xmlns:rdf="http://www.w3.org/1999/02/22-rdf-syntax-ns#"
   xmlns:svg="http://www.w3.org/2000/svg"
   xmlns="http://www.w3.org/2000/svg"
   xmlns:sodipodi="http://sodipodi.sourceforge.net/DTD/sodipodi-0.dtd"
   xmlns:inkscape="http://www.inkscape.org/namespaces/inkscape"
   height="434.62479pt"
   viewBox="-32 0 512.74542 434.62562"
   width="512.74542pt"
   version="1.1"
   id="svg64"
   sodipodi:docname="tortoise.svg"
   inkscape:export-filename="C:\Users\Adilio\Desktop\nexushell.png"
   inkscape:export-xdpi="96"
   inkscape:export-ydpi="96"
   inkscape:version="0.92.4 (5da689c313, 2019-01-14)">
  <metadata
     id="metadata70">
    <rdf:RDF>
      <cc:Work
         rdf:about="">
        <dc:format>image/svg+xml</dc:format>
        <dc:type
           rdf:resource="http://purl.org/dc/dcmitype/StillImage" />
        <dc:title></dc:title>
      </cc:Work>
    </rdf:RDF>
  </metadata>
  <defs
     id="defs68">
    <style
       id="style962">.cls-1{fill:#1aba73;}.cls-2{fill:#1c1f2a;}</style>
  </defs>
  <sodipodi:namedview
     pagecolor="#ffffff"
     bordercolor="#666666"
     borderopacity="1"
     objecttolerance="10"
     gridtolerance="10"
     guidetolerance="10"
     inkscape:pageopacity="0"
     inkscape:pageshadow="2"
     inkscape:window-width="1501"
     inkscape:window-height="1045"
     id="namedview66"
     showgrid="false"
     fit-margin-top="0"
     fit-margin-left="0"
     fit-margin-right="0"
     fit-margin-bottom="0"
     inkscape:zoom="0.9777961"
     inkscape:cx="428.90682"
     inkscape:cy="208.38932"
     inkscape:window-x="778"
     inkscape:window-y="140"
     inkscape:window-maximized="0"
     inkscape:current-layer="svg64" />
  <path
     style="fill:#76ab29"
     inkscape:connector-curvature="0"
     d="m 34.066693,124.52393 -23.732375,1.6522 c 0,0 -17.4846363,0.88365 -26.114859,13.72829 -4.297589,6.39465 -8.542253,10.82595 -11.9558,13.78549 -3.829917,3.32113 -5.235224,8.5658 -3.578984,13.35694 1.47645,4.26982 2.936788,10.22976 3.461282,17.91649 1.051675,15.43889 15.751985,24.94648 15.751985,24.94648 18.5480816,12.504 20.9988981,15.2353 35.351953,19.08119 19.812798,5.30882 39.363167,3.46216 54.37135,-3.75482 0.71343,-26.13154 5.623182,-44.47006 18.078917,-67.47144 -9.388981,-13.75417 -25.396764,-25.12861 -45.209562,-30.43743 -5.526627,-1.485 -11.028824,-2.39709 -16.423907,-2.80339 z m 0,0"
     id="path2" />
  <path
     style="fill:#76ab29"
     inkscape:connector-curvature="0"
     d="m 287.54057,370.40846 c 0.77419,10.98078 5.51004,45.84366 34.53568,55.6633 33.68659,11.3961 154.22106,3.96449 45.29709,-44.15987 -5.95555,-2.63106 -10.52174,-7.70046 -12.52849,-13.96049 l -5.73197,-17.89405 c -17.56962,9.0339 -38.0821,16.47855 -61.57231,20.35111 z m 0,0"
     id="path4" />
  <path
     style="fill:#76ab29"
     inkscape:connector-curvature="0"
     d="M 138.16417,344.87704 C 111.85936,328.94796 96.286463,308.05712 87.362774,286.6954 c -9.766714,8.98134 -36.908304,37.72506 -25.734307,71.03331 13.166296,39.24493 103.764393,145.46919 71.354663,10.57435 -2.17651,-9.06761 0.26491,-16.14161 5.18104,-23.42602 z m 0,0"
     id="path6" />
  <path
     style="fill:#76ab29"
     inkscape:connector-curvature="0"
     d="m 147.93653,35.622627 c -26.41197,23.560639 -17.37558,62.386455 -13.43937,75.164853 18.46056,-14.230382 42.43699,-24.701946 73.20643,-25.435088 -0.59211,-8.792693 0.81709,-16.240338 7.29283,-23.127075 95.85477,-101.885276 -35.93903,-54.3650911 -67.05989,-26.60269 z m 0,0"
     id="path8" />
  <path
     style="fill:#76ab29"
     inkscape:connector-curvature="0"
     d="m 349.79464,138.07312 c 18.37853,15.20448 32.38615,32.03626 43.04855,48.7805 l 13.95351,-12.78919 c 4.8841,-4.47835 11.38334,-6.62321 17.85957,-5.93532 118.44741,12.59742 17.88449,-54.50574 -16.99685,-61.45809 -30.05283,-5.98611 -51.67561,22.1739 -57.86478,31.4021 z m 0,0"
     id="path10" />
  <path
     style="fill:#76ab29"
     inkscape:connector-curvature="0"
     d="m 415.64034,296.55846 c 12.38528,3.49253 27.74352,10.10697 33.63144,22.16681 9.28981,19.02935 16.35519,-35.01881 -25.12782,-49.05798 -0.3076,9.55454 -3.22497,18.84251 -8.50362,26.89117 z m 0,0"
     id="path12" />
  <g
     style="fill:#6c9b1b"
     id="g28"
     transform="rotate(-75,200.49637,246.64274)">
    <path
       inkscape:connector-curvature="0"
       d="m 193.82031,54.277344 7.73828,-22.496094 c 0,0 5.37891,-16.660156 20.01953,-21.671875 5.33204,-1.824219 9.62891,-3.894531 13.02344,-5.863281 -1.25,-0.726563 -2.38281,-1.4375 -3.39062,-2.117188 -4.19532,-2.839844 -9.62891,-2.839844 -13.82813,0 -3.74219,2.53125 -9.12109,5.484375 -16.40625,7.980469 -14.64453,5.011719 -20.02344,21.671875 -20.02344,21.671875 -7.27343,21.152344 -9.28125,24.226562 -9.28125,39.085938 0,20.511718 6.84766,38.917972 17.69922,51.546872 6.30078,-1.50781 12.20313,-2.63672 17.91016,-3.39453 -13.48828,-18.07422 -17.60156,-42.789061 -13.46094,-64.742186 z m 0,0"
       id="path14" />
    <path
       inkscape:connector-curvature="0"
       d="m 79.253906,410.51953 c 1.277344,-19.82422 15.367188,-32.50391 27.953124,-39.95703 -1.28125,-2.54688 -2.52734,-5.14844 -3.73047,-7.80859 -10.406248,3.58984 -42.855466,17.1875 -44.828122,47.76562 C 56.796875,439.21484 81.53125,519.5625 100.73828,487.07031 88.195312,470.11719 78.042969,429.28125 79.253906,410.51953 Z m 0,0"
       id="path16" />
    <path
       inkscape:connector-curvature="0"
       d="m 88.832031,211.63672 0.644531,0.22265 c 0.05078,-0.18359 0.113282,-0.35546 0.167969,-0.53515 -0.273437,0.10156 -0.542969,0.20312 -0.8125,0.3125 z m 0,0"
       id="path18" />
    <path
       inkscape:connector-curvature="0"
       d="m 77.859375,141.25781 c 6.183594,-4.09765 12.613281,-6.48047 19.015625,-7.64453 -12.601562,-2.05469 -26.648438,-0.95312 -39.621094,7.64453 -29.476562,19.54688 -91.550781,106.34766 -32.949218,89.89453 -17.09375,-12.10156 29.28125,-73.80078 53.554687,-89.89453 z m 0,0"
       id="path20" />
    <path
       inkscape:connector-curvature="0"
       d="m 347.01172,157.9375 c -5.63672,-5.55078 -3.78906,-15.06641 3.49219,-18.16406 6.0664,-2.57813 13.21875,-4.95313 20.89843,-6.17969 -24.1289,-4.28516 -47.83984,8.53906 -56.76172,14.13672 18.52344,14.15234 34.84375,34.59765 43.51563,64.1289 3.16016,-1.07812 10.67578,-4.08984 20.40625,-0.6289 -6.80078,-22.76563 -18.15625,-40.10156 -31.55078,-53.29297 z m 0,0"
       id="path22" />
    <path
       inkscape:connector-curvature="0"
       d="m 354.95703,442.84375 c -1.80078,-11.46094 -10.04297,-15.51563 -16.36328,-19.53906 -5.15234,-3.28125 -6.28125,-10.32813 -2.40234,-15.05078 8.98437,-10.94532 17.42578,-23.48438 24.69531,-37.79297 -6.83594,-3.98047 -13.21485,-6.45313 -16.88281,-7.70703 -9.92579,21.6875 -22.5586,39.57421 -35.97657,54.20703 l 15.96875,10.16797 c 5.58985,3.55859 9.34375,9.28125 10.35547,15.71484 8.6836,55.26562 21.84375,59.31641 33.125,44.39062 -4.63672,-7.65625 -8.95312,-21.70703 -12.51953,-44.39062 z m 0,0"
       id="path24" />
    <path
       inkscape:connector-curvature="0"
       d="m 228.50781,469.82031 c -6.89844,0.5625 -13.8789,-0.24609 -20.54297,-2.44531 -0.16797,12.86719 -2.58203,29.41797 -12.70703,38.22266 -10.33203,8.98828 8.61719,9.16406 24.0625,-3.65625 6.72266,-8.58594 8.8086,-21.33204 9.1875,-32.1211 z m 0,0"
       id="path26" />
  </g>
  <path
     style="fill:#525468"
     inkscape:connector-curvature="0"
     d="m 3.1615407,201.4227 c -6.6973375,-1.79454 -13.5632727,2.09614 -15.3305227,8.69161 -1.767247,6.59546 2.2334805,13.39787 8.930818,15.19242 6.7011104,1.79555 13.563275,-2.09616 15.330523,-8.69161 1.76725,-6.59547 -2.2297079,-13.39686 -8.9308183,-15.19242 z m 0,0"
     id="path30" />
  <path
     style="fill:#525468"
     inkscape:connector-curvature="0"
     d="m 25.709129,117.27396 c -6.697338,-1.79455 -13.563276,2.09615 -15.330523,8.69161 -1.7672501,6.59546 2.23449,13.3941 8.931827,15.18864 6.701111,1.79556 13.562263,-2.09237 15.329514,-8.68784 1.767247,-6.59545 -2.229708,-13.39685 -8.930818,-15.19241 z m 0,0"
     id="path32" />
  <path
     style="fill:#a0634a"
     inkscape:connector-curvature="0"
     d="m 80.378417,189.81714 c 0,0 -38.261753,137.33126 103.548233,175.32913 121.518,32.56065 196.30633,-26.86541 227.51611,-60.81564 11.9279,-12.97203 16.74739,-30.95862 12.90354,-48.15669 C 414.29194,211.17106 379.2374,122.30864 257.7194,89.74799 115.90941,51.750119 80.378417,189.81714 80.378417,189.81714 Z m 0,0"
     id="path34" />
  <path
     style="fill:#915039"
     inkscape:connector-curvature="0"
     d="M 416.77585,284.42727 C 385.56983,318.37851 310.77673,377.80734 189.25873,345.24669 70.751701,313.49283 77.998459,212.38821 83.57748,180.00613 c -2.232122,6.06649 -3.199063,9.81101 -3.199063,9.81101 0,0 -38.261753,137.33126 103.548233,175.32913 121.518,32.56065 196.30633,-26.86541 227.51611,-60.81564 8.36732,-9.10154 13.21915,-20.6737 14.0536,-32.70762 -2.25026,4.60982 -5.16094,8.93754 -8.72051,12.80426 z m 0,0"
     id="path36" />
  <path
     style="fill:#ba7861"
     inkscape:connector-curvature="0"
     d="m 238.05336,180.03125 -43.15021,11.56179 c -2.22634,0.59646 -3.96588,2.33435 -4.56238,4.56051 l -11.56294,43.15349 c -0.5965,2.22616 0.041,4.601 1.67088,6.2307 l 31.58829,31.58792 c 1.62982,1.62971 4.00691,2.26664 6.22946,1.66919 l 43.15399,-11.56079 c 2.22634,-0.59645 3.9621,-2.33536 4.5586,-4.56152 l 11.56294,-43.15349 c 0.5965,-2.22616 -0.041,-4.60099 -1.6671,-6.22969 l -31.59206,-31.58892 c -1.62605,-1.62871 -4.00314,-2.26564 -6.22947,-1.66919 z m 0,0"
     id="path38" />
  <path
     style="fill:#ba7861"
     inkscape:connector-curvature="0"
     d="m 347.84442,209.44968 -43.154,11.56078 c -2.22255,0.59747 -3.96209,2.33536 -4.55859,4.56152 l -11.56294,43.15349 c -0.5965,2.22616 0.041,4.60099 1.66709,6.22968 l 31.59207,31.58894 c 1.62982,1.6297 4.00313,2.26562 6.22947,1.66918 l 43.15022,-11.5618 c 2.22632,-0.59645 3.96586,-2.33435 4.56236,-4.56051 l 11.56295,-43.15349 c 0.59649,-2.22616 -0.0411,-4.60099 -1.67087,-6.2307 l -31.5883,-31.58791 c -1.62983,-1.62971 -4.00314,-2.26564 -6.22946,-1.66918 z m 0,0"
     id="path40" />
  <path
     style="fill:#ba7861"
     inkscape:connector-curvature="0"
     d="m 75.904021,221.36692 26.340909,26.34409 c 1.62983,1.62971 4.00692,2.26665 6.23324,1.67019 l 43.15123,-11.56557 c 2.22632,-0.59645 3.96587,-2.33435 4.56237,-4.56051 l 11.56193,-43.14971 c 0.5965,-2.22616 -0.04,-4.60476 -1.67087,-6.2307 l -31.58728,-31.59169 c -1.62983,-1.62971 -4.00691,-2.26665 -6.23325,-1.67019 l -35.983929,9.64419 c -10.844616,21.12393 -15.200721,37.30567 -16.37435,61.1099 z m 0,0"
     id="path42" />
  <path
     style="fill:#a0634a"
     inkscape:connector-curvature="0"
     d="m 80.378417,189.81714 c -1.817797,6.78411 -3.840805,18.72603 -4.474396,31.54978 l 5.951832,5.95023 c -1.987338,-19.74982 -0.05511,-36.99758 1.722361,-47.29869 -1.018603,2.76009 -2.51345,7.13153 -3.199797,9.79868 z m 0,0"
     id="path44" />
  <path
     style="fill:#ba7861"
     inkscape:connector-curvature="0"
     d="m 297.95812,103.79751 -22.01962,5.9004 c -2.22632,0.59645 -3.96587,2.33435 -4.56237,4.56051 l -11.56294,43.15349 c -0.59649,2.22615 0.041,4.60098 1.67087,6.23069 l 31.58829,31.58792 c 1.62984,1.62971 4.00691,2.26665 6.23325,1.67019 l 43.15022,-11.5618 c 2.22632,-0.59645 3.96587,-2.33435 4.56236,-4.5605 l 10.51453,-39.24073 c -15.98255,-14.17021 -35.57375,-27.18827 -59.57459,-37.74017 z m 0,0"
     id="path46" />
  <path
     style="fill:#ba7861"
     inkscape:connector-curvature="0"
     d="m 376.58629,160.77297 -6.98205,26.05736 c -0.5965,2.22616 0.0373,4.59998 1.6671,6.22969 l 31.59206,31.58892 c 3.24383,3.24304 6.75679,1.5274 11.98042,0.12858 -7.6399,-19.88943 -19.59311,-42.53203 -38.25753,-64.00455 z m 0,0"
     id="path48" />
  <path
     style="fill:#ba7861"
     inkscape:connector-curvature="0"
     d="m 159.25544,93.549422 -9.22953,34.445068 c -0.5965,2.22615 0.0373,4.59998 1.6671,6.22968 l 31.59207,31.58894 c 1.62982,1.62971 4.00313,2.26563 6.22946,1.66918 l 43.154,-11.56079 c 2.22632,-0.59645 3.96311,-2.33913 4.55859,-4.56151 l 11.56294,-43.15349 c 0.5965,-2.22616 -0.041,-4.601 -1.6671,-6.22969 L 229.41576,84.266958 c -28.06322,-3.26922 -51.19904,0.940936 -70.16032,9.282464 z m 0,0"
     id="path50" />
  <path
     style="fill:#ba7861"
     inkscape:connector-curvature="0"
     d="m 224.38397,302.10204 c -2.22632,0.59644 -3.96587,2.33434 -4.56236,4.56049 l -11.56295,43.15349 c -0.59649,2.22616 0.0411,4.601 1.67087,6.2307 l 17.20683,17.20777 c 25.52733,2.66657 48.55423,1.15696 69.12498,-3.04897 l 10.76526,-40.17648 c 0.59548,-2.22238 -0.041,-4.60099 -1.67088,-6.23069 l -31.58828,-31.58792 c -1.62984,-1.62971 -4.00691,-2.26665 -6.23325,-1.67019 z m 0,0"
     id="path52" />
  <path
     style="fill:#a0634a"
     inkscape:connector-curvature="0"
     d="m 301.59443,350.30216 c -26.87271,5.49375 -57.94402,6.37247 -93.29735,-0.62951 -0.67131,2.50537 0.066,4.80987 1.63245,6.37407 l 17.20683,17.20777 c 2.62331,-0.31215 26.61707,4.80265 69.12498,-3.04897 z m 0,0"
     id="path54" />
  <path
     style="fill:#ba7861"
     inkscape:connector-curvature="0"
     d="m 334.17125,331.51945 c -2.22633,0.59645 -3.9621,2.33536 -4.55859,4.56151 l -7.23177,26.98933 c 27.25555,-9.38264 49.14204,-23.25313 65.7856,-36.82995 l -4.61178,-4.6125 c -1.62983,-1.62971 -4.00313,-2.26564 -6.22947,-1.66918 z m 0,0"
     id="path56" />
  <path
     style="fill:#a0634a"
     inkscape:connector-curvature="0"
     d="m 327.71398,343.16693 -5.33309,19.90336 c 23.66541,-8.14869 45.86698,-20.58405 65.7856,-36.82995 l -4.61178,-4.6125 c -1.62983,-1.62971 -4.00313,-2.26564 -6.22947,-1.66918 l -4.10429,1.10022 c -13.0235,8.3675 -28.18132,16.14291 -45.50697,22.10805 z m 0,0"
     id="path58" />
  <path
     style="fill:#ba7861"
     inkscape:connector-curvature="0"
     d="m 114.59292,272.68361 c -2.22633,0.59645 -3.9621,2.33536 -4.5586,4.56151 l -9.47925,35.37703 c 12.05374,16.4417 29.60669,31.4371 54.87953,42.58459 l 25.67563,-6.88213 c 2.22633,-0.59645 3.96588,-2.33434 4.56237,-4.5605 l 11.56295,-43.15349 c 0.59649,-2.22615 -0.041,-4.60099 -1.67089,-6.23069 L 163.97637,262.792 c -1.62982,-1.62971 -4.00691,-2.26665 -6.22945,-1.66918 z m 0,0"
     id="path60" />
  <path
     style="fill:#a0634a"
     inkscape:connector-curvature="0"
     d="m 181.11023,348.32461 c 2.08159,-0.55435 3.72154,-2.11673 4.41491,-4.1309 -39.06051,-11.20225 -63.98386,-30.11369 -79.64479,-51.46082 l -5.32904,19.88825 c 13.95643,19.03017 32.91554,32.89796 54.87952,42.58459 l 0.004,0.001 z m 0,0"
     id="path62" />
  <g
     data-name="Product Logos Vertical"
     id="Product_Logos_Vertical"
     transform="matrix(2.9098109,0.76929348,-0.76929348,2.9098109,191.07699,154.25184)">
    <path
       id="path966"
       d="m 19.13,27 v -7.44 a 3.77,3.77 0 0 1 2.77,-1.28 3.52,3.52 0 0 1 0.81,0.07 v -2.89 a 4.91,4.91 0 0 0 -3.58,1.79 v -1.51 h -3 V 27 Z"
       class="cls-1"
       inkscape:connector-curvature="0"
       style="fill:#1aba73" />
    <polygon
       id="polygon968"
       points="37,11.3 32.46,13.92 32.46,28.94 18.5,37 4.54,28.94 4.54,12.81 17.63,5.25 17.63,0 0,10.18 0,31.56 18.5,42.25 37,31.56 "
       class="cls-2"
       style="fill:#1c1f2a" />
    <polygon
       id="polygon970"
       points="19.44,0 19.44,5.25 31.73,12.35 36.27,9.73 "
       class="cls-1"
       style="fill:#1aba73" />
  </g>
</svg>
